<?xml version="1.0" encoding="UTF-8"?>
<!DOCTYPE svg PUBLIC "-//W3C//DTD SVG 1.1//EN" "http://www.w3.org/Graphics/SVG/1.1/DTD/svg11.dtd">
<!-- Creator: CorelDRAW (Evaluation Version) -->
<svg xmlns="http://www.w3.org/2000/svg" xml:space="preserve" version="1.1" style="shape-rendering:geometricPrecision; text-rendering:geometricPrecision; image-rendering:optimizeQuality; fill-rule:evenodd; clip-rule:evenodd"
viewBox="0 0 23956.06 17808.19"
 xmlns:xlink="http://www.w3.org/1999/xlink"
 xmlns:xodm="http://www.corel.com/coreldraw/odm/2003">
 <defs>
  <style type="text/css">
   <![CDATA[
    .fil1 {fill:#27AAE1;fill-rule:nonzero}
    .fil0 {fill:#6C91BF;fill-rule:nonzero}
   ]]>
  </style>
 </defs>
 <g id="Layer_x0020_1">
  <metadata id="CorelCorpID_0Corel-Layer"/>
  <g id="_2112418487424">
   <path class="fil0" d="M547.95 15875.78l1761.78 0c48.02,0 93.35,16.24 135.92,48.58 54.58,47.17 81.86,107.74 81.86,181.7l0 270.55 -2.81 0c-129.47,1.85 -403.21,2.74 -821.2,2.74 -329.26,1.86 -584.52,2.75 -765.77,2.75 -189.6,1.9 -318.57,2.81 -387.04,2.81 -13.84,0 -26.34,4.64 -37.43,13.89 -9.25,9.24 -13.9,22.64 -13.9,40.22l0 105.39c0,24.99 10.64,42.14 31.93,51.34 2.75,0.95 5.05,1.65 6.95,2.1 1.79,0.5 4.15,0.7 6.89,0.7 419.88,-1.85 659.39,-2.8 718.62,-2.8 14.73,0 41.58,-0.41 80.44,-1.36 109.1,-1.89 316.29,-2.79 621.46,-2.79l11.1 0c39.78,0 92.95,5.1 159.52,15.29 48.12,8.3 87.85,18.49 119.33,30.49 99.85,38.83 171.55,100.34 214.99,184.54 37.92,73.95 56.91,165.06 56.91,273.25l0 198.39c0,196.05 -57.82,334.32 -173.41,414.77 -93.45,66.56 -232.61,99.84 -417.57,99.84l-1715.96 0c-64.76,0 -121.17,-27.23 -169.24,-81.8 -34.24,-40.73 -51.33,-88.35 -51.33,-142.86l0 -274.76 1954.58 0c22.19,0 36.98,-10.6 44.37,-31.89 1.86,-2.75 3,-5.5 3.5,-8.34 0.45,-2.75 0.65,-4.55 0.65,-5.5l0 -145.68c0,-19.38 -10.64,-33.28 -31.87,-41.58 -5.56,-1.9 -11.11,-2.85 -16.65,-2.85l-1403.87 0c-221.93,0 -374.55,-54.96 -457.76,-165.06 -16.69,-20.34 -28.67,-39.28 -36.08,-56.87 -9.24,-17.53 -18.04,-39.27 -26.34,-65.15 -7.43,-24.09 -13.88,-53.68 -19.43,-88.8 -5.56,-37.93 -8.35,-93.89 -8.35,-167.86l0 -11.1c0,-178.5 15.29,-301.48 45.77,-369 15.76,-45.32 42.09,-87.85 79.12,-127.63 20.34,-23.09 38.33,-39.33 54.07,-48.58 53.62,-36.97 114.23,-62.41 181.74,-76.31 57.32,-13.84 118.83,-20.78 184.5,-20.78z"/>
   <path class="fil0" d="M5523.32 15875.78c60.11,0 109.09,22.68 147.02,68.01 17.6,19.39 30.09,45.33 37.49,77.65 2.75,11.09 4.19,26.84 4.19,47.19l0 284.38 -1757.63 0 0 278.81 1230.48 0 0 418.91 -1227.73 0 -1.34 1.4 0 295.47 1754.78 0c0.95,0 1.44,0.51 1.44,1.41l0 278.85c0,42.53 -15.74,82.3 -47.17,119.29 -19.44,19.43 -33.34,30.98 -41.64,34.68 -27.74,17.59 -61.95,26.33 -102.64,26.33l-1890.8 0c-12.95,0 -30.49,-3.64 -52.73,-11.09 -47.13,-17.54 -82.3,-49.02 -105.39,-94.3 -11.15,-25.94 -16.64,-53.62 -16.64,-83.25l0 -975.2c-0.95,-47.19 -1.41,-200.69 -1.41,-460.55l0 -127.63c0,-30.54 9.71,-62.42 29.14,-95.7 20.35,-29.59 44.39,-51.32 72.12,-65.21 20.33,-9.25 35.63,-14.34 45.77,-15.29 5.55,-1.8 13.9,-3.2 24.99,-4.15l1897.7 0z"/>
   <path class="fil0" d="M7274.81 15875.78l1485.73 0c68.42,0 122.53,29.64 162.31,88.8 17.54,30.49 26.34,62.41 26.34,95.75l0 316.27 -1666.02 0c-107.29,0 -195.14,43.43 -263.61,130.33 -43.48,57.37 -65.16,121.63 -65.16,192.83l0 284.4c0,85.1 30.03,160.02 90.15,224.72 28.69,26.85 51.76,44.88 69.35,54.13 16.64,11.09 35.13,19.39 55.53,24.93 38.83,13.9 68.4,20.8 88.75,20.8l1686.87 0 0 320.46c0,50.89 -22.69,97.15 -68.02,138.74 -35.13,26.83 -73.95,40.22 -116.48,40.22l-1488.48 0c-170.2,0 -329.27,-52.22 -477.25,-156.76 -24.93,-17.54 -60.11,-47.63 -105.39,-90.14 -47.17,-50.83 -79.09,-90.66 -95.74,-119.29 -27.74,-42.53 -48.52,-79.51 -62.41,-110.99 -51.82,-107.24 -77.71,-227.52 -77.71,-360.71l0 -255.21c0,-145.17 31.5,-276.06 94.36,-392.57 16.63,-33.34 39.33,-71.21 67.95,-113.79 7.39,-8.3 15.3,-17.54 23.58,-27.74 13.9,-16.65 29.6,-34.68 47.19,-54.07 49.02,-48.09 88.8,-81.41 119.28,-99.9 51.83,-36.99 103.15,-66.56 154.02,-88.8 105.39,-41.64 210.38,-62.41 314.88,-62.41z"/>
   <path class="fil0" d="M10543.92 17808.18c-71.24,-2.75 -123.48,-5.54 -156.75,-8.29 -25.9,0 -78.17,-8.8 -156.78,-26.39 -59.16,-14.75 -104.49,-29.6 -135.93,-44.39 -43.48,-19.44 -86.95,-49.03 -130.42,-88.8 -113.74,-101.69 -170.61,-280.64 -170.61,-536.85l11.1 -979.36c0,-65.65 18.04,-119.78 54.13,-162.31 49.92,-57.32 110.49,-85.99 181.69,-85.99l276.05 0 0 1292.87c0,14.79 3.7,30.98 11.15,48.58 24.93,50.87 62.86,76.26 113.73,76.26l1284.56 0c36.97,0 68.85,-16.15 95.68,-48.58 19.45,-19.39 29.14,-50.37 29.14,-92.95l0 -1273.45 0 -2.05c0,-0.45 0.91,-0.69 2.81,-0.69l274.64 0c31.44,0 61.97,6.94 91.55,20.78 57.37,24.08 98.95,65.71 124.84,124.88 8.39,22.19 13.94,44.88 16.69,67.96 8.29,606.67 12.5,948.38 12.5,1025.19 0,139.63 -19.95,260.76 -59.62,363.4 -10.24,26.89 -25.49,56.47 -45.83,88.8 -30.53,44.38 -68.46,83.2 -113.74,116.54 -37.98,24.04 -76.8,43.87 -116.53,59.66 -39.79,16.64 -99.45,31.83 -178.95,45.73 -91.55,12.99 -167.41,19.44 -227.53,19.44l-1087.55 0z"/>
   <path class="fil0" d="M13831.06 16376.58l0 436.96 1136.13 0c88.8,0 156.26,-15.29 202.53,-45.78 33.29,-21.29 57.76,-49.48 73.5,-84.65 12.95,-26.78 19.45,-57.32 19.45,-91.5 0,-67.51 -30.99,-123.92 -92.95,-169.25 -9.25,-6.44 -18.94,-12 -29.14,-16.64 -2.75,-0.95 -5.54,-2.3 -8.29,-4.2 -16.64,-8.3 -42.13,-15.69 -76.3,-22.19 -11.1,0 -26.4,-0.9 -45.83,-2.75l-1179.1 0zm-314.88 -500.83l1406.62 0c189.6,0 353.26,29.64 491.09,88.8 27.74,11.1 49.47,20.35 65.16,27.74 23.09,12.99 47.63,28.24 73.56,45.83 122.93,74.85 210.38,180.79 262.2,317.67 27.74,73.07 41.58,150.73 41.58,233.03l0 18.03c0,99 -20.78,192.35 -62.46,280.2 -12.9,24.99 -29.09,52.77 -48.52,83.25 -16.65,22.18 -36.54,45.77 -59.62,70.75 -11.14,12.95 -22.19,24.54 -33.34,34.7l-13.88 13.84 -11.05 8.34 -20.84 16.65c-16.64,12.04 -37.43,25.88 -62.41,41.62 -3.69,1.86 -7.39,4.15 -11.09,6.96 -24.99,12.93 -47.63,24.48 -67.96,34.68 -10.2,4.6 -19.89,9.25 -29.14,13.84 -36.08,14.84 -74.01,28.23 -113.79,40.23 114.69,118.38 193.34,204.39 235.82,258.05 28.69,32.35 56.92,64.27 84.65,95.7 52.73,61.02 103.1,117.95 151.17,170.61 14.84,13.9 23.64,23.59 26.39,29.14l-599.27 0c-34.23,0 -61.01,-3.66 -80.46,-11.09 -5.54,-2.81 -10.64,-5.56 -15.24,-8.31 -4.65,-2.8 -9.69,-6.04 -15.29,-9.74 -19.44,-12.95 -41.14,-34.64 -65.16,-65.22 -87.85,-104.48 -180.8,-218.67 -278.85,-342.6l-48.57 -62.47c-2.75,0 -8.31,0.95 -16.61,2.81 -57.35,0 -229.86,0.95 -517.46,2.79l-352.35 0 0 314.88c0,59.21 -25.44,109.13 -76.3,149.82 -30.49,21.29 -65.67,31.93 -105.4,31.93l-317.67 0 0 -1738.18c0,-31.43 3.7,-56.41 11.1,-74.92 3.65,-11.09 10.14,-24.02 19.39,-38.87 6.45,-9.19 14.34,-18.05 23.59,-26.34 38.83,-36.08 82.3,-54.13 130.42,-54.13z"/>
   <path class="fil0" d="M16728.37 15875.78l406.47 0c73.05,0 128.52,31.44 166.46,94.34 15.74,26.79 23.59,60.12 23.59,99.85l0 1738.18 -417.52 0c-45.32,0 -87.9,-18.94 -127.68,-56.85 -34.18,-35.14 -51.32,-79.51 -51.32,-133.19l0 -1742.33z"/>
   <path class="fil0" d="M18382.76 15875.78l2148.82 0c53.62,0 98,16.24 133.17,48.58 19.4,18.49 31.89,33.73 37.45,45.77 16.63,32.39 24.99,59.62 24.99,81.81l0 327.41 -1036.29 0 0 1428.81 -321.82 0c-45.34,0 -87.86,-18.03 -127.64,-54.12 -0.94,-0.9 -1.84,-2.25 -2.74,-4.15 -2.75,-2.74 -6.49,-6.9 -11.1,-12.49 -26.83,-35.13 -40.27,-71.21 -40.27,-108.2l0 -1249.86 -1000.15 0 0 -255.26c0,-65.65 1.84,-98.94 5.54,-99.84 8.34,-36.99 22.64,-66.61 43.04,-88.8 22.18,-19.43 38.32,-31.43 48.52,-36.08 23.09,-15.7 55.93,-23.59 98.49,-23.59z"/>
   <path class="fil0" d="M21984.84 15875.78c48.08,0 86,9.75 113.74,29.14 19.39,12.04 41.18,33.78 65.21,65.2l83.21 108.2c54.57,73.06 117.23,157.01 187.98,251.76 70.75,94.85 133.88,179.45 189.35,253.91 55.47,74.4 86.45,116.73 92.94,126.89l549.3 -775.43c25.88,-25.88 49.53,-41.63 70.75,-47.17 16.69,-8.35 42.09,-12.5 76.31,-12.5l542.41 0c-8.31,12.04 -61.72,82.05 -160.23,210.13 -98.49,128.13 -211.83,275.21 -339.9,441.15 -128.09,166.03 -241.58,313.34 -340.57,441.87l-149.77 194.19 0 645.03 -335.72 0c-60.12,0 -110.54,-26.33 -151.22,-79.04 -22.19,-32.34 -33.28,-65.67 -33.28,-99.91l0 -468.83 -867.02 -1090.4c0,-2.74 -49.92,-67.46 -149.82,-194.19l556.29 0z"/>
   <polygon class="fil0" points="9216.7,4636.52 9216.7,2771.69 7046.24,2771.69 7046.24,5863.14 9970.88,7632.77 7655.51,8838.64 9529.38,9980.07 9817.72,10155.73 9817.72,10159.72 10488.39,9810.42 10488.39,5408.05 "/>
   <polygon class="fil0" points="14836.69,9980.07 16710.67,8838.6 14395.23,7632.77 17319.92,5863.2 17319.92,2771.69 17319.52,2771.69 15149.37,2771.69 15149.37,4636.52 13877.92,5407.89 13877.92,9810.56 14548.3,10159.72 14548.3,10155.73 "/>
   <polygon class="fil1" points="13276.9,14272.39 13276.9,2170.66 17319.52,2170.66 17319.52,0 7045.93,0 7045.93,2170.66 11089.46,2170.66 11089.46,14272.39 12182.7,15047.51 "/>
   <polygon class="fil1" points="9216.7,12946.17 9216.7,10493.37 7046.24,9171.3 7046.24,11408.62 "/>
   <polygon class="fil1" points="17319.91,9171.26 15149.36,10493.37 15149.36,12946.17 17319.91,11408.58 "/>
  </g>
 </g>
</svg>
